<?xml version="1.0" encoding="UTF-8" standalone="no"?>
<!DOCTYPE svg PUBLIC "-//W3C//DTD SVG 1.1//EN" "http://www.w3.org/Graphics/SVG/1.1/DTD/svg11.dtd">
<svg width="100%" height="100%" viewBox="0 0 945 600" version="1.1" xmlns="http://www.w3.org/2000/svg" xmlns:xlink="http://www.w3.org/1999/xlink" xml:space="preserve" xmlns:serif="http://www.serif.com/" style="fill-rule:evenodd;clip-rule:evenodd;stroke-linejoin:round;stroke-miterlimit:2;">
    <g>
        <rect x="0" y="0" width="944.938" height="600" style="fill:rgb(210,249,254);fill-rule:nonzero;"/>
        <path d="M155.098,486.423C155.239,483.145 154.679,479.846 152.955,476.819C147.846,467.853 133.811,463.526 119.199,468.055C104.587,463.526 90.551,467.853 85.442,476.819C83.718,479.846 83.158,483.144 83.299,486.423C82.889,496.527 88.414,507.925 95.091,514.568C97.162,516.628 104.629,523.49 116.116,524.285C116.663,524.323 117.738,524.384 119.199,524.329C120.659,524.384 121.735,524.323 122.281,524.285C133.768,523.49 141.235,516.628 143.306,514.568C149.983,507.925 155.508,496.527 155.098,486.423Z" style="fill:rgb(209,64,64);fill-rule:nonzero;"/>
        <path d="M145.178,483.899C145.297,481.134 144.825,478.352 143.37,475.799C139.06,468.234 127.22,464.585 114.894,468.405C102.568,464.585 90.728,468.234 86.418,475.799C84.963,478.351 84.491,481.134 84.609,483.899C84.264,492.424 88.924,502.039 94.557,507.644C96.304,509.381 102.604,515.169 112.294,515.841C112.755,515.872 113.662,515.923 114.894,515.877C116.126,515.923 117.034,515.872 117.495,515.841C127.185,515.169 133.484,509.381 135.23,507.644C140.864,502.039 145.524,492.424 145.178,483.899Z" style="fill:rgb(221,82,82);fill-rule:nonzero;"/>
        <path d="M118.448,468.248C118.448,468.248 126.469,451.47 148.521,448.928C148.521,448.928 142.502,466.108 118.448,468.248Z" style="fill:rgb(160,224,69);fill-rule:nonzero;"/>
        <path d="M519.159,172.062C519.159,172.062 534.037,162.583 528.019,139.966C522,117.35 506,137.797 499,119.574C492,101.35 450,78.351 451,109.35C451,109.35 510.32,141.774 519.159,172.062Z" style="fill:rgb(182,238,242);fill-rule:nonzero;"/>
        <path d="M519.159,172.062C519.159,172.062 481.123,185.453 478,154.917C474.877,124.381 417,132.35 451,109.35C451,109.35 506.32,138.774 519.159,172.062Z" style="fill:rgb(182,238,242);fill-rule:nonzero;"/>
        <path d="M182.538,510.051C182.397,495.729 184.094,481.186 185.788,467.313C186.43,462.051 187.131,456.788 187.889,451.531L187.889,387.223C187.889,378.705 180.427,372.113 171.975,373.163C164.2,374.129 158.685,381.221 159.665,388.994L168.252,457.145L168.252,507.533L182.538,510.051Z" style="fill:rgb(140,224,151);fill-rule:nonzero;"/>
        <path d="M177.754,417.195C177.754,417.195 140.256,430.72 137.256,384.616C134.256,338.513 79.108,428.072 177.754,439.08L177.754,417.195Z" style="fill:rgb(140,224,151);fill-rule:nonzero;"/>
        <path d="M177.754,437.725C177.754,437.725 203.688,447.079 205.763,415.192C207.838,383.306 245.979,445.248 177.754,452.861L177.754,437.725Z" style="fill:rgb(140,224,151);fill-rule:nonzero;"/>
        <path d="M189.625,527.397L158.949,527.397L156.685,492.934L191.89,492.934L189.625,527.397Z" style="fill:rgb(169,216,213);fill-rule:nonzero;"/>
        <rect x="61.952" y="525.666" width="821.034" height="4.233" style="fill:rgb(0,149,224);fill-rule:nonzero;"/>
        <path d="M617.821,516.561L304.604,516.561C300.406,516.561 296.971,513.126 296.971,508.927L296.971,298.8C296.971,294.601 300.406,291.166 304.604,291.166L617.821,291.166C622.02,291.166 625.454,294.601 625.454,298.8L625.454,508.927C625.454,513.126 622.02,516.561 617.821,516.561Z" style="fill:rgb(120,213,228);fill-rule:nonzero;"/>
        <path d="M606.696,508.927L315.728,508.927C311.53,508.927 308.095,505.492 308.095,501.294L308.095,306.433C308.095,302.234 311.53,298.8 315.728,298.8L606.696,298.8C610.895,298.8 614.33,302.234 614.33,306.433L614.33,501.294C614.33,505.492 610.895,508.927 606.696,508.927Z" style="fill:rgb(47,81,142);fill-rule:nonzero;"/>
        <rect x="355.884" y="320.045" width="40.244" height="4.464" style="fill:rgb(253,254,254);fill-rule:nonzero;"/>
        <rect x="355.884" y="330.045" width="25.642" height="4.464" style="fill:rgb(253,254,254);fill-rule:nonzero;"/>
        <rect x="395.884" y="330.045" width="103.116" height="4.464" style="fill:rgb(253,254,254);fill-rule:nonzero;"/>
        <rect x="509" y="330.045" width="54" height="4.464" style="fill:rgb(252,100,84);fill-rule:nonzero;"/>
        <rect x="365.884" y="340.045" width="65.116" height="4.464" style="fill:rgb(88,208,91);fill-rule:nonzero;"/>
        <rect x="451" y="340.045" width="97.019" height="4.464" style="fill:rgb(253,254,254);fill-rule:nonzero;"/>
        <rect x="355.884" y="350.045" width="91.558" height="4.464" style="fill:rgb(252,100,84);fill-rule:nonzero;"/>
        <rect x="455.884" y="350.045" width="65.116" height="4.464" style="fill:rgb(120,213,228);fill-rule:nonzero;"/>
        <rect x="365.884" y="360.045" width="65.116" height="4.464" style="fill:rgb(253,254,254);fill-rule:nonzero;"/>
        <rect x="355.884" y="370.045" width="95.116" height="4.464" style="fill:rgb(253,254,254);fill-rule:nonzero;"/>
        <rect x="355.884" y="380.045" width="65.116" height="4.464" style="fill:rgb(253,254,254);fill-rule:nonzero;"/>
        <rect x="375.884" y="390.045" width="108.617" height="4.464" style="fill:rgb(252,100,84);fill-rule:nonzero;"/>
        <rect x="495.884" y="390.045" width="35.116" height="4.464" style="fill:rgb(253,254,254);fill-rule:nonzero;"/>
        <rect x="545.884" y="390.045" width="35.116" height="4.464" style="fill:rgb(253,254,254);fill-rule:nonzero;"/>
        <rect x="385.884" y="400.045" width="44.309" height="4.464" style="fill:rgb(253,254,254);fill-rule:nonzero;"/>
        <rect x="385.884" y="410.045" width="59.11" height="4.464" style="fill:rgb(252,100,84);fill-rule:nonzero;"/>
        <rect x="465.884" y="410.045" width="65.116" height="4.464" style="fill:rgb(253,254,254);fill-rule:nonzero;"/>
        <rect x="545.884" y="410.045" width="27.116" height="4.464" style="fill:rgb(252,100,84);fill-rule:nonzero;"/>
        <rect x="355.884" y="420.045" width="40" height="4.464" style="fill:rgb(253,254,254);fill-rule:nonzero;"/>
        <rect x="355.884" y="430.045" width="65.116" height="4.464" style="fill:rgb(253,254,254);fill-rule:nonzero;"/>
        <rect x="385.884" y="440.045" width="118.116" height="4.464" style="fill:rgb(253,254,254);fill-rule:nonzero;"/>
        <rect x="515.883" y="440.045" width="73.117" height="4.464" style="fill:rgb(120,213,228);fill-rule:nonzero;"/>
        <rect x="385.884" y="450.045" width="40.116" height="4.464" style="fill:rgb(253,254,254);fill-rule:nonzero;"/>
        <rect x="435.884" y="450.045" width="40.116" height="4.464" style="fill:rgb(88,208,91);fill-rule:nonzero;"/>
        <rect x="485.884" y="450.045" width="40.116" height="4.464" style="fill:rgb(253,254,254);fill-rule:nonzero;"/>
        <rect x="355.884" y="460.045" width="65.116" height="4.464" style="fill:rgb(253,254,254);fill-rule:nonzero;"/>
        <rect x="375.884" y="470.045" width="65.116" height="4.464" style="fill:rgb(88,208,91);fill-rule:nonzero;"/>
        <rect x="453.326" y="470.045" width="65.116" height="4.464" style="fill:rgb(88,208,91);fill-rule:nonzero;"/>
        <rect x="451.944" y="490.045" width="36.498" height="4.464" style="fill:rgb(253,254,254);fill-rule:nonzero;"/>
        <rect x="375.884" y="480.045" width="96.585" height="4.464" style="fill:rgb(253,254,254);fill-rule:nonzero;"/>
        <rect x="326.237" y="320.045" width="4.464" height="4.464" style="fill:rgb(113,148,191);fill-rule:nonzero;"/>
        <rect x="326.237" y="330.045" width="4.464" height="4.464" style="fill:rgb(113,148,191);fill-rule:nonzero;"/>
        <rect x="326.237" y="340.045" width="4.464" height="4.464" style="fill:rgb(113,148,191);fill-rule:nonzero;"/>
        <rect x="326.237" y="350.045" width="4.464" height="4.464" style="fill:rgb(113,148,191);fill-rule:nonzero;"/>
        <rect x="326.237" y="360.045" width="4.464" height="4.464" style="fill:rgb(113,148,191);fill-rule:nonzero;"/>
        <rect x="326.237" y="370.045" width="4.464" height="4.464" style="fill:rgb(113,148,191);fill-rule:nonzero;"/>
        <rect x="326.237" y="380.045" width="4.464" height="4.464" style="fill:rgb(113,148,191);fill-rule:nonzero;"/>
        <rect x="326.237" y="390.045" width="4.464" height="4.464" style="fill:rgb(113,148,191);fill-rule:nonzero;"/>
        <rect x="326.237" y="400.045" width="4.464" height="4.464" style="fill:rgb(113,148,191);fill-rule:nonzero;"/>
        <rect x="326.237" y="410.045" width="4.464" height="4.464" style="fill:rgb(113,148,191);fill-rule:nonzero;"/>
        <rect x="326.237" y="420.045" width="4.464" height="4.464" style="fill:rgb(113,148,191);fill-rule:nonzero;"/>
        <rect x="326.237" y="430.045" width="4.464" height="4.464" style="fill:rgb(113,148,191);fill-rule:nonzero;"/>
        <rect x="326.237" y="440.045" width="4.464" height="4.464" style="fill:rgb(113,148,191);fill-rule:nonzero;"/>
        <rect x="326.237" y="450.045" width="4.464" height="4.464" style="fill:rgb(113,148,191);fill-rule:nonzero;"/>
        <rect x="326.237" y="460.045" width="4.464" height="4.464" style="fill:rgb(113,148,191);fill-rule:nonzero;"/>
        <rect x="326.237" y="470.045" width="4.464" height="4.464" style="fill:rgb(113,148,191);fill-rule:nonzero;"/>
        <rect x="326.237" y="480.045" width="4.464" height="4.464" style="fill:rgb(113,148,191);fill-rule:nonzero;"/>
        <rect x="326.237" y="490.045" width="4.464" height="4.464" style="fill:rgb(113,148,191);fill-rule:nonzero;"/>
        <rect x="375.884" y="490.045" width="48.293" height="4.464" style="fill:rgb(253,254,254);fill-rule:nonzero;"/>
        <path d="M565.215,494.418L546.22,486.35L546.22,483.06L565.215,474.991L565.215,478.497L550.136,484.704L565.215,490.913L565.215,494.418Z" style="fill:rgb(253,254,254);fill-rule:nonzero;"/>
        <path d="M578.572,470.154L570.268,498.863L567.428,498.863L575.732,470.154L578.572,470.154Z" style="fill:rgb(253,254,254);fill-rule:nonzero;"/>
        <path d="M599.78,486.35L580.785,494.418L580.785,490.913L595.864,484.704L580.785,478.497L580.785,474.991L599.78,483.06L599.78,486.35Z" style="fill:rgb(253,254,254);fill-rule:nonzero;"/>
        <path d="M617.457,524.896L300.468,524.896C289.424,524.896 280.471,515.943 280.471,504.899L637.453,504.899C637.453,515.943 628.501,524.896 617.457,524.896Z" style="fill:rgb(25,187,210);fill-rule:nonzero;"/>
        <path d="M411.306,504.899L382.957,504.899L386.647,494.509L414.996,494.509L411.306,504.899ZM416.582,490.045L388.232,490.045L390.198,484.509L418.548,484.509L416.582,490.045ZM420.133,480.045L391.784,480.045L393.75,474.509L422.099,474.509L420.133,480.045ZM423.685,470.045L395.335,470.045L397.301,464.509L421,464.509L421,460.045L398.887,460.045L400.853,454.509L426,454.509L426,450.045L402.438,450.045L404.404,444.509L432.754,444.509L423.685,470.045ZM434.339,440.045L405.989,440.045L407.956,434.509L421,434.509L421,430.045L409.541,430.045L415.058,414.509L443.408,414.509L434.339,440.045ZM444.994,410.045L416.644,410.045L418.61,404.509L430.193,404.509L430.193,400.045L420.195,400.045L422.161,394.509L450.511,394.509L444.993,410.045M452.096,390.045L423.747,390.045L429.264,374.509L451,374.509L451,370.045L430.85,370.045L436.367,354.509L447.442,354.509L447.442,350.045L437.952,350.045L443.47,334.509L471.819,334.509L469.853,340.045L451,340.045L451,344.509L468.268,344.509L466.302,350.045L455.884,350.045L455.884,354.509L464.717,354.509L452.096,390.045ZM473.405,330.045L445.055,330.045L456.152,298.8L484.501,298.8L473.405,330.045Z" style="fill:rgb(52,89,154);fill-rule:nonzero;"/>
        <path d="M471.819,334.509L443.47,334.509L445.055,330.045L473.405,330.045L471.819,334.509Z" style="fill:rgb(253,254,254);fill-rule:nonzero;"/>
        <path d="M468.268,344.509L451,344.509L451,340.045L469.853,340.045L468.268,344.509Z" style="fill:rgb(253,254,254);fill-rule:nonzero;"/>
        <path d="M447.442,354.509L436.367,354.509L437.952,350.045L447.442,350.045L447.442,354.509Z" style="fill:rgb(252,110,93);fill-rule:nonzero;"/>
        <path d="M464.717,354.509L455.884,354.509L455.884,350.045L466.302,350.045L464.717,354.509Z" style="fill:rgb(132,217,231);fill-rule:nonzero;"/>
        <path d="M451,374.509L429.264,374.509L430.85,370.045L451,370.045L451,374.509Z" style="fill:rgb(253,254,254);fill-rule:nonzero;"/>
        <path d="M450.511,394.509L422.161,394.509L423.747,390.045L452.096,390.045L450.511,394.509Z" style="fill:rgb(252,110,93);fill-rule:nonzero;"/>
        <path d="M430.193,404.509L418.61,404.509L420.195,400.045L430.193,400.045L430.193,404.509Z" style="fill:rgb(253,254,254);fill-rule:nonzero;"/>
        <path d="M443.408,414.509L415.058,414.509L416.644,410.045L444.994,410.045L443.408,414.509Z" style="fill:rgb(252,110,93);fill-rule:nonzero;"/>
        <path d="M421,434.509L407.956,434.509L409.541,430.045L421,430.045L421,434.509Z" style="fill:rgb(253,254,254);fill-rule:nonzero;"/>
        <path d="M432.754,444.509L404.404,444.509L405.989,440.045L434.339,440.045L432.754,444.509Z" style="fill:rgb(253,254,254);fill-rule:nonzero;"/>
        <path d="M426,454.509L400.853,454.509L402.438,450.045L426,450.045L426,454.509Z" style="fill:rgb(253,254,254);fill-rule:nonzero;"/>
        <path d="M421,464.509L397.301,464.509L398.887,460.045L421,460.045L421,464.509Z" style="fill:rgb(253,254,254);fill-rule:nonzero;"/>
        <path d="M422.099,474.509L393.75,474.509L395.335,470.045L423.685,470.045L422.099,474.509Z" style="fill:rgb(97,213,100);fill-rule:nonzero;"/>
        <path d="M418.548,484.509L390.198,484.509L391.784,480.045L420.133,480.045L418.548,484.509Z" style="fill:rgb(253,254,254);fill-rule:nonzero;"/>
        <path d="M414.996,494.509L386.647,494.509L388.232,490.045L416.582,490.045L414.996,494.509Z" style="fill:rgb(253,254,254);fill-rule:nonzero;"/>
        <path d="M409.876,508.927L381.526,508.927L382.957,504.899L411.306,504.899L409.876,508.927Z" style="fill:rgb(28,194,215);fill-rule:nonzero;"/>
        <path d="M330.478,504.899L309.006,504.899C308.426,503.824 308.095,502.596 308.095,501.294L308.095,306.433C308.095,302.234 311.53,298.8 315.728,298.8L403.673,298.8L396.128,320.045L355.884,320.045L355.884,324.509L394.543,324.509L389.025,340.045L365.884,340.045L365.884,344.509L387.44,344.509L385.473,350.045L355.884,350.045L355.884,354.509L383.888,354.509L381.922,360.045L365.884,360.045L365.884,364.509L380.337,364.509L378.371,370.045L355.884,370.045L355.884,374.509L376.785,374.509L374.819,380.045L355.884,380.045L355.884,384.509L373.234,384.509L360.613,420.045L355.884,420.045L355.884,424.509L359.028,424.509L357.062,430.045L355.884,430.045L355.884,433.361L330.478,504.899ZM326.237,490.045L326.237,494.509L330.701,494.509L330.701,490.045L326.237,490.045ZM326.237,480.045L326.237,484.509L330.701,484.509L330.701,480.045L326.237,480.045ZM326.237,470.045L326.237,474.509L330.701,474.509L330.701,470.045L326.237,470.045ZM326.237,460.045L326.237,464.509L330.701,464.509L330.701,460.045L326.237,460.045ZM326.237,450.045L326.237,454.509L330.701,454.509L330.701,450.045L326.237,450.045ZM326.237,440.045L326.237,444.509L330.701,444.509L330.701,440.045L326.237,440.045ZM326.237,430.045L326.237,434.509L330.701,434.509L330.701,430.045L326.237,430.045ZM326.237,420.045L326.237,424.509L330.701,424.509L330.701,420.045L326.237,420.045ZM326.237,410.045L326.237,414.509L330.701,414.509L330.701,410.045L326.237,410.045ZM326.237,400.045L326.237,404.509L330.701,404.509L330.701,400.045L326.237,400.045ZM326.237,390.045L326.237,394.509L330.701,394.509L330.701,390.045L326.237,390.045ZM326.237,380.045L326.237,384.509L330.701,384.509L330.701,380.045L326.237,380.045ZM326.237,370.045L326.237,374.509L330.701,374.509L330.701,370.045L326.237,370.045ZM326.237,360.045L326.237,364.509L330.701,364.509L330.701,360.045L326.237,360.045ZM326.237,350.045L326.237,354.509L330.701,354.509L330.701,350.045L326.237,350.045ZM326.237,340.045L326.237,344.509L330.701,344.509L330.701,340.045L326.237,340.045ZM355.884,330.045L355.884,334.509L381.526,334.509L381.526,330.045L355.884,330.045ZM326.237,330.045L326.237,334.509L330.701,334.509L330.701,330.045L326.237,330.045ZM326.237,320.045L326.237,324.509L330.701,324.509L330.701,320.045L326.237,320.045Z" style="fill:rgb(52,89,154);fill-rule:nonzero;"/>
        <path d="M394.543,324.509L355.884,324.509L355.884,320.045L396.128,320.045L394.543,324.509Z" style="fill:rgb(253,254,254);fill-rule:nonzero;"/>
        <rect x="355.884" y="330.045" width="25.642" height="4.464" style="fill:rgb(253,254,254);fill-rule:nonzero;"/>
        <path d="M387.44,344.509L365.884,344.509L365.884,340.045L389.025,340.045L387.44,344.509Z" style="fill:rgb(97,213,100);fill-rule:nonzero;"/>
        <path d="M383.888,354.509L355.884,354.509L355.884,350.045L385.473,350.045L383.888,354.509Z" style="fill:rgb(252,110,93);fill-rule:nonzero;"/>
        <path d="M380.337,364.509L365.884,364.509L365.884,360.045L381.922,360.045L380.337,364.509Z" style="fill:rgb(253,254,254);fill-rule:nonzero;"/>
        <path d="M376.785,374.509L355.884,374.509L355.884,370.045L378.371,370.045L376.785,374.509Z" style="fill:rgb(253,254,254);fill-rule:nonzero;"/>
        <path d="M373.234,384.509L355.884,384.509L355.884,380.045L374.819,380.045L373.234,384.509Z" style="fill:rgb(253,254,254);fill-rule:nonzero;"/>
        <path d="M359.028,424.509L355.884,424.509L355.884,420.045L360.613,420.045L359.028,424.509Z" style="fill:rgb(253,254,254);fill-rule:nonzero;"/>
        <path d="M355.884,433.361L355.884,430.045L357.062,430.045L355.884,433.361Z" style="fill:rgb(253,254,254);fill-rule:nonzero;"/>
        <rect x="326.237" y="320.045" width="4.464" height="4.464" style="fill:rgb(125,159,198);fill-rule:nonzero;"/>
        <rect x="326.237" y="330.045" width="4.464" height="4.464" style="fill:rgb(125,159,198);fill-rule:nonzero;"/>
        <rect x="326.237" y="340.045" width="4.464" height="4.464" style="fill:rgb(125,159,198);fill-rule:nonzero;"/>
        <rect x="326.237" y="350.045" width="4.464" height="4.464" style="fill:rgb(125,159,198);fill-rule:nonzero;"/>
        <rect x="326.237" y="360.045" width="4.464" height="4.464" style="fill:rgb(125,159,198);fill-rule:nonzero;"/>
        <rect x="326.237" y="370.045" width="4.464" height="4.464" style="fill:rgb(125,159,198);fill-rule:nonzero;"/>
        <rect x="326.237" y="380.045" width="4.464" height="4.464" style="fill:rgb(125,159,198);fill-rule:nonzero;"/>
        <rect x="326.237" y="390.045" width="4.464" height="4.464" style="fill:rgb(125,159,198);fill-rule:nonzero;"/>
        <rect x="326.237" y="400.045" width="4.464" height="4.464" style="fill:rgb(125,159,198);fill-rule:nonzero;"/>
        <rect x="326.237" y="410.045" width="4.464" height="4.464" style="fill:rgb(125,159,198);fill-rule:nonzero;"/>
        <rect x="326.237" y="420.045" width="4.464" height="4.464" style="fill:rgb(125,159,198);fill-rule:nonzero;"/>
        <rect x="326.237" y="430.045" width="4.464" height="4.464" style="fill:rgb(125,159,198);fill-rule:nonzero;"/>
        <rect x="326.237" y="440.045" width="4.464" height="4.464" style="fill:rgb(125,159,198);fill-rule:nonzero;"/>
        <rect x="326.237" y="450.045" width="4.464" height="4.464" style="fill:rgb(125,159,198);fill-rule:nonzero;"/>
        <rect x="326.237" y="460.045" width="4.464" height="4.464" style="fill:rgb(125,159,198);fill-rule:nonzero;"/>
        <rect x="326.237" y="470.045" width="4.464" height="4.464" style="fill:rgb(125,159,198);fill-rule:nonzero;"/>
        <rect x="326.237" y="480.045" width="4.464" height="4.464" style="fill:rgb(125,159,198);fill-rule:nonzero;"/>
        <rect x="326.237" y="490.045" width="4.464" height="4.464" style="fill:rgb(125,159,198);fill-rule:nonzero;"/>
        <path d="M329.047,508.927L315.728,508.927C312.832,508.927 310.299,507.292 309.006,504.899L330.478,504.899L329.047,508.927Z" style="fill:rgb(28,194,215);fill-rule:nonzero;"/>
        <path d="M613.419,504.899L569.458,504.899L614.33,378.551L614.33,501.294C614.33,502.596 614,503.824 613.419,504.899ZM580.785,474.991L580.785,478.497L595.864,484.704L580.785,490.913L580.785,494.418L599.78,486.35L599.78,483.06L580.785,474.991Z" style="fill:rgb(52,89,154);fill-rule:nonzero;"/>
        <path d="M580.785,494.418L580.785,490.913L595.864,484.704L580.785,478.497L580.785,474.991L599.78,483.06L599.78,486.35L580.785,494.418Z" style="fill:rgb(253,254,254);fill-rule:nonzero;"/>
        <path d="M606.696,508.927L568.027,508.927L569.458,504.899L613.419,504.899C612.126,507.292 609.593,508.927 606.696,508.927Z" style="fill:rgb(28,194,215);fill-rule:nonzero;"/>
        <path d="M518.086,504.899L466.186,504.899L469.876,494.509L488.442,494.509L488.442,490.045L471.462,490.045L476.979,474.509L518.442,474.509L518.442,470.045L478.564,470.045L487.633,444.509L504,444.509L504,440.045L489.219,440.045L498.288,414.509L531,414.509L531,410.045L499.873,410.045L505.391,394.509L531,394.509L531,390.045L506.976,390.045L519.596,354.509L521,354.509L521,350.556L523.148,344.509L548.019,344.509L548.019,340.045L524.733,340.045L526.699,334.509L563,334.509L563,330.045L528.284,330.045L539.381,298.8L591.281,298.8L558.876,390.045L545.884,390.045L545.884,394.509L557.291,394.509L551.773,410.045L545.884,410.045L545.884,414.509L550.188,414.509L541.119,440.045L515.883,440.045L515.883,444.509L539.533,444.509L518.086,504.899ZM485.884,450.045L485.884,454.509L526,454.509L526,450.045L485.884,450.045Z" style="fill:rgb(52,89,154);fill-rule:nonzero;"/>
        <path d="M563,334.509L526.699,334.509L528.284,330.045L563,330.045L563,334.509Z" style="fill:rgb(252,110,93);fill-rule:nonzero;"/>
        <path d="M548.019,344.509L523.148,344.509L524.733,340.045L548.019,340.045L548.019,344.509Z" style="fill:rgb(253,254,254);fill-rule:nonzero;"/>
        <path d="M521,354.509L519.596,354.509L521,350.556L521,354.509Z" style="fill:rgb(132,217,231);fill-rule:nonzero;"/>
        <path d="M531,394.509L505.391,394.509L506.976,390.045L531,390.045L531,394.509Z" style="fill:rgb(253,254,254);fill-rule:nonzero;"/>
        <path d="M557.291,394.509L545.884,394.509L545.884,390.045L558.876,390.045L557.291,394.509Z" style="fill:rgb(253,254,254);fill-rule:nonzero;"/>
        <path d="M531,414.509L498.288,414.509L499.873,410.045L531,410.045L531,414.509Z" style="fill:rgb(253,254,254);fill-rule:nonzero;"/>
        <path d="M550.188,414.509L545.884,414.509L545.884,410.045L551.773,410.045L550.188,414.509Z" style="fill:rgb(252,110,93);fill-rule:nonzero;"/>
        <path d="M504,444.509L487.633,444.509L489.219,440.045L504,440.045L504,444.509Z" style="fill:rgb(253,254,254);fill-rule:nonzero;"/>
        <path d="M539.533,444.509L515.883,444.509L515.883,440.045L541.119,440.045L539.533,444.509Z" style="fill:rgb(132,217,231);fill-rule:nonzero;"/>
        <rect x="485.884" y="450.045" width="40.116" height="4.464" style="fill:rgb(253,254,254);fill-rule:nonzero;"/>
        <path d="M518.442,474.509L476.979,474.509L478.564,470.045L518.442,470.045L518.442,474.509Z" style="fill:rgb(97,213,100);fill-rule:nonzero;"/>
        <path d="M488.442,494.509L469.876,494.509L471.462,490.045L488.442,490.045L488.442,494.509Z" style="fill:rgb(253,254,254);fill-rule:nonzero;"/>
        <path d="M516.656,508.927L464.756,508.927L466.186,504.899L518.086,504.899L516.656,508.927Z" style="fill:rgb(28,194,215);fill-rule:nonzero;"/>
        <path d="M634.757,514.897C636.462,511.954 637.453,508.546 637.453,504.899L280.472,504.899C280.472,508.546 281.463,511.954 283.168,514.897L634.757,514.897Z" style="fill:rgb(123,215,226);fill-rule:nonzero;"/>
        <path d="M797.906,525.666L651.88,525.666C644.479,525.666 638.479,519.666 638.479,512.265C638.479,504.863 644.479,498.863 651.88,498.863L797.906,498.863L797.906,525.666Z" style="fill:rgb(240,114,72);fill-rule:nonzero;"/>
        <path d="M789.346,525.666L872.182,525.666L872.182,498.863L789.346,498.863C781.944,498.863 775.944,504.863 775.944,512.265C775.944,519.666 781.944,525.666 789.346,525.666Z" style="fill:rgb(229,91,54);fill-rule:nonzero;"/>
        <path d="M793.819,520.648L872.182,520.648L872.182,502.899L793.819,502.899C788.918,502.899 784.944,506.873 784.944,511.774C784.944,516.677 788.918,520.648 793.819,520.648Z" style="fill:rgb(242,232,224);fill-rule:nonzero;"/>
        <path d="M774.234,499.106L651.61,499.106C639.296,499.106 629.313,489.123 629.313,476.808C629.313,464.492 639.296,454.509 651.61,454.509L774.234,454.509L774.234,499.106Z" style="fill:rgb(252,224,89);fill-rule:nonzero;"/>
        <path d="M776.569,499.106L861.377,499.106L861.377,454.509L776.569,454.509C764.254,454.509 754.271,464.492 754.271,476.808C754.271,489.123 764.254,499.106 776.569,499.106Z" style="fill:rgb(249,189,91);fill-rule:nonzero;"/>
        <path d="M777.218,490.757L861.377,490.757L861.377,461.224L777.218,461.224C769.063,461.224 762.451,467.835 762.451,475.99C762.451,484.146 769.063,490.757 777.218,490.757Z" style="fill:rgb(242,232,224);fill-rule:nonzero;"/>
        <path d="M824.063,543.278L813.511,537.075L802.958,543.278L802.958,507.487L824.063,507.487L824.063,543.278Z" style="fill:rgb(209,64,64);fill-rule:nonzero;"/>
        <path d="M850.494,508.828L839.941,502.625L829.39,508.828L829.39,473.037L850.494,473.037L850.494,508.828Z" style="fill:rgb(209,64,64);fill-rule:nonzero;"/>
        <path d="M790.326,454.775L681.938,454.775C676.541,454.775 672.166,450.4 672.166,445.002C672.166,439.604 676.541,435.229 681.938,435.229L790.326,435.229L790.326,454.775Z" style="fill:rgb(180,244,99);fill-rule:nonzero;"/>
        <path d="M783.822,454.775L861.377,454.775L861.377,435.229L783.822,435.229C778.425,435.229 774.049,439.604 774.049,445.002C774.049,450.4 778.425,454.775 783.822,454.775Z" style="fill:rgb(160,224,69);fill-rule:nonzero;"/>
        <path d="M787.191,451.116L861.377,451.116L861.377,438.172L787.191,438.172C783.617,438.172 780.719,441.069 780.719,444.645C780.719,448.219 783.617,451.116 787.191,451.116Z" style="fill:rgb(242,232,224);fill-rule:nonzero;"/>
        <path d="M802.958,464.509L797.683,460.634L792.406,464.509L792.406,442.149L802.958,442.149L802.958,464.509Z" style="fill:rgb(209,64,64);fill-rule:nonzero;"/>
        <path d="M697.955,476.687C697.955,465.092 706.854,455.582 718.192,454.599L718.192,454.509L673.788,454.509C661.54,454.509 651.61,464.438 651.61,476.687C651.61,488.935 661.54,498.863 673.788,498.863L718.192,498.863L718.192,498.774C706.854,497.791 697.955,488.28 697.955,476.687Z" style="fill:rgb(209,64,64);fill-rule:nonzero;"/>
        <rect x="214.184" y="413.326" width="61.147" height="17.902" style="fill:rgb(191,209,208);fill-rule:nonzero;"/>
        <rect x="214.184" y="417.35" width="61.147" height="13.878" style="fill:rgb(166,188,187);fill-rule:nonzero;"/>
        <rect x="246.916" y="405.037" width="18.943" height="12.313" style="fill:rgb(191,209,208);fill-rule:nonzero;"/>
        <path d="M270.331,525.383L219.184,525.383L209.184,430.045L280.331,430.045L270.331,525.383Z" style="fill:rgb(253,254,254);fill-rule:nonzero;"/>
        <path d="M270.331,525.383L219.184,525.383L209.184,430.045L219.741,473.978C225.791,499.155 245.253,518.932 270.331,525.383Z" style="fill:rgb(244,237,203);fill-rule:nonzero;"/>
        <rect x="202.76" y="427.996" width="83.995" height="5.983" style="fill:rgb(166,188,187);fill-rule:nonzero;"/>
        <rect x="202.76" y="420.045" width="83.995" height="10.943" style="fill:rgb(191,209,208);fill-rule:nonzero;"/>
        <path d="M272.689,502.899L278.233,450.045L211.282,450.045L216.826,502.899L272.689,502.899Z" style="fill:rgb(169,216,213);fill-rule:nonzero;"/>
        <path d="M270.067,475.169C270.067,485.8 261.449,494.418 250.817,494.418C240.187,494.418 231.568,485.8 231.568,475.169C231.568,464.537 240.187,455.919 250.817,455.919C261.449,455.919 270.067,464.537 270.067,475.169Z" style="fill:rgb(128,206,199);fill-rule:nonzero;"/>
        <path d="M211.282,450.045L216.826,502.899L272.689,502.899L241.75,497.39C231.797,495.617 223.639,488.49 220.545,478.866L211.282,450.045Z" style="fill:rgb(128,206,199);fill-rule:nonzero;"/>
        <rect x="444.994" y="253.574" width="434.862" height="10.129" style="fill:rgb(182,238,242);fill-rule:nonzero;"/>
        <rect x="821.048" y="142.95" width="29.446" height="110.624" style="fill:rgb(182,238,242);fill-rule:nonzero;"/>
        <path d="M702.048,252.574L702.048,128.35L729.494,128.35L729.494,252.574L702.048,252.574ZM730.494,253.161L730.494,127.35L701.048,127.35L701.048,253.574L730.144,253.574C730.259,253.435 730.374,253.296 730.494,253.161Z" style="fill:rgb(182,238,242);fill-rule:nonzero;"/>
        <rect x="708.409" y="154.917" width="14.723" height="73.433" style="fill:rgb(182,238,242);fill-rule:nonzero;"/>
        <rect x="701.048" y="134.982" width="29.446" height="9.968" style="fill:rgb(182,238,242);fill-rule:nonzero;"/>
        <rect x="701.048" y="235.639" width="29.446" height="9.967" style="fill:rgb(182,238,242);fill-rule:nonzero;"/>
        <path d="M802.996,167.131L795.635,156.911L788.273,167.131L788.273,118.769L802.996,118.769L802.996,167.131Z" style="fill:rgb(182,238,242);fill-rule:nonzero;"/>
        <path d="M785.944,252.574L785.944,120.574L820.048,120.574L820.048,252.574L785.944,252.574ZM821.048,252.914L821.048,119.574L784.944,119.574L784.944,253.574L820.387,253.574C820.604,253.35 820.818,253.125 821.048,252.914Z" style="fill:rgb(182,238,242);fill-rule:nonzero;"/>
        <rect x="658.896" y="119.574" width="36.104" height="134" style="fill:rgb(175,231,232);fill-rule:nonzero;"/>
        <rect x="635" y="150.654" width="23.896" height="102.92" style="fill:rgb(182,238,242);fill-rule:nonzero;"/>
        <rect x="658.896" y="135.246" width="36.104" height="15.408" style="fill:rgb(182,238,242);fill-rule:nonzero;"/>
        <path d="M761.393,142.788L783.728,148.511L756.766,253.735L734.432,248.013L761.393,142.788ZM757.506,254.876L784.944,147.79L760.672,141.571L733.215,248.733L757.384,254.926L757.506,254.876Z" style="fill:rgb(182,238,242);fill-rule:nonzero;"/>
        <path d="M758.283,154.924L780.618,160.646L778.005,170.845L755.67,165.123L758.283,154.924ZM778.749,171.969L781.835,159.926L757.563,153.707L754.453,165.843L778.632,172.038L778.749,171.969Z" style="fill:rgb(182,238,242);fill-rule:nonzero;"/>
        <path d="M500.509,199.262L500.509,226.716C500.509,240.974 512.109,252.574 526.366,252.574L553.143,252.574C567.4,252.574 579,240.974 579,226.716L579,199.262L500.509,199.262ZM553.143,254.574L526.366,254.574C511.006,254.574 498.509,242.077 498.509,226.716L498.509,197.262L581,197.262L581,226.716C581,242.077 568.503,254.574 553.143,254.574Z" style="fill:rgb(182,238,242);fill-rule:nonzero;"/>
        <path d="M527.027,198.389C526.962,197.883 519.896,147.498 464.308,119.663L465.204,117.875C521.781,146.205 528.945,197.619 529.011,198.135L527.027,198.389Z" style="fill:rgb(182,238,242);fill-rule:nonzero;"/>
        <path d="M540.127,203.035L538.795,198.546C538.557,197.739 533.158,178.254 552.077,132.708L553.923,133.476C540.054,166.865 539.496,186.231 540.13,193.993C542.631,188.724 549.594,179.681 568.725,174.208L569.275,176.13C543.004,183.646 540.766,198.243 540.746,198.39L540.127,203.035Z" style="fill:rgb(182,238,242);fill-rule:nonzero;"/>
        <path d="M540.26,174.986C540.26,174.986 565.054,178.484 568.027,154.917C571,131.35 559,134.797 574,119.574C589,104.35 592,111.35 580,99.351C568,87.351 554.521,76.893 540.26,94.122C526,111.35 516.037,116.859 528.019,130.104C540,143.35 531.912,149.905 528.019,158.515C524.125,167.126 540.26,174.986 540.26,174.986Z" style="fill:rgb(182,238,242);fill-rule:nonzero;"/>
        <path d="M553.007,165.226C553.007,165.226 560.967,185.75 574.3,173.265C577.412,170.351 578.847,167.685 579.462,165.295C580.935,159.575 578.183,156.341 580.118,154.561C581.978,152.851 584.84,155.631 590.967,154.779C592.896,154.51 597.51,153.868 598.967,150.779C600.263,148.032 598.478,144.599 597.568,142.851C595.103,138.109 591.586,136.987 592.006,134.244C592.208,132.928 593.209,131.934 593.962,131.187C595.574,129.586 597.425,129.039 598.303,128.793C605.463,126.792 608.834,127.84 611.169,126.039C614.387,123.557 614.593,116.47 612.301,112.112C606.913,101.869 583.854,99.348 569.634,107.445C553.831,116.445 546.46,139.977 553.007,165.226Z" style="fill:rgb(182,238,242);fill-rule:nonzero;"/>
        <path d="M518.718,172.297C518.482,171.854 494.691,127.85 461.088,119.253L461.336,118.285C495.369,126.991 519.362,171.379 519.601,171.827L518.718,172.297Z" style="fill:rgb(210,249,254);fill-rule:nonzero;"/>
        <path d="M493.505,148.389C489.372,148.389 483.583,146.651 476.176,140.347L476.824,139.585C491.344,151.942 499.176,146.165 500.316,145.181C501.304,130.429 489.954,119.24 489.838,119.128L490.534,118.41C490.653,118.525 502.439,130.128 501.3,145.453L501.286,145.64L501.152,145.772C500.961,145.959 498.39,148.388 493.505,148.389Z" style="fill:rgb(210,249,254);fill-rule:nonzero;"/>
        <path d="M516.326,167.53L515.34,167.367C517.77,152.663 507.371,140.408 507.266,140.286L508.023,139.632C508.131,139.758 518.831,152.369 516.326,167.53Z" style="fill:rgb(210,249,254);fill-rule:nonzero;"/>
        <path d="M471.01,134.089C466.085,134.089 460.544,132.602 455.646,127.704L456.354,126.997C467.391,138.035 481.896,130.932 483.993,129.814C483.904,127.952 482.922,117.429 472.179,109.757L472.76,108.943C484.966,117.66 485.002,129.985 485.001,130.109L484.999,130.392L484.754,130.536C484.654,130.595 478.557,134.088 471.01,134.089Z" style="fill:rgb(210,249,254);fill-rule:nonzero;"/>
        <path d="M540.741,175.123L539.779,174.849C539.839,174.639 545.803,153.599 550.127,127.269C554.487,100.721 562.35,94.008 562.683,93.735L563.318,94.508C563.24,94.573 555.398,101.344 551.114,127.431C546.78,153.821 540.801,174.913 540.741,175.123Z" style="fill:rgb(210,249,254);fill-rule:nonzero;"/>
        <path d="M562.5,175C562.494,174.757 562.033,150.364 579.562,118.528L580.438,119.01C563.039,150.611 563.493,174.732 563.5,174.972L562.5,175Z" style="fill:rgb(210,249,254);fill-rule:nonzero;"/>
        <path d="M563.984,163.841L560.535,155.101L561.465,154.733L564.309,161.94C566.281,159.747 573.179,152.472 579.837,150.182L580.163,151.127C572.715,153.689 564.605,163.114 564.524,163.209L563.984,163.841Z" style="fill:rgb(210,249,254);fill-rule:nonzero;"/>
        <path d="M513.893,165.432C509.976,165.432 501.839,164.438 495.163,157.106L495.902,156.433C504.635,166.024 515.945,164.326 516.059,164.307L516.219,165.294C516.188,165.299 515.32,165.432 513.893,165.432Z" style="fill:rgb(210,249,254);fill-rule:nonzero;"/>
        <path d="M569.4,143.262L566.127,134.733L567.061,134.375L569.646,141.11C571.513,138.563 577.953,130.737 587.345,129.608L587.464,130.601C576.931,131.868 570.004,142.335 569.935,142.44L569.4,143.262Z" style="fill:rgb(210,249,254);fill-rule:nonzero;"/>
        <path d="M542.867,167.35L542.392,165.045C542.371,164.941 540.192,154.62 534.728,151.074L535.272,150.235C539.917,153.25 542.251,160.485 543.049,163.501C544.17,161.831 547.145,158.881 554.882,156.295L555.199,157.244C544.407,160.851 543.379,165.01 543.37,165.051L542.867,167.35Z" style="fill:rgb(210,249,254);fill-rule:nonzero;"/>
        <path d="M547.865,145.056L546.887,144.85C547.011,144.239 549.741,129.791 534.768,121.93L535.232,121.044C545.735,126.558 547.846,135.41 548.088,140.685C552.062,129.717 560.647,124.479 560.744,124.421L561.257,125.279C561.152,125.342 550.781,131.686 547.865,145.056Z" style="fill:rgb(210,249,254);fill-rule:nonzero;"/>
        <path d="M332.103,267.369L256.756,267.369C250.158,267.369 244.757,261.969 244.757,255.369L244.757,196.467C244.757,189.867 250.158,184.467 256.756,184.467L332.103,184.467C338.703,184.467 344.103,189.867 344.103,196.467L344.103,255.369C344.103,261.969 338.703,267.369 332.103,267.369Z" style="fill:rgb(171,239,239);fill-rule:nonzero;"/>
        <path d="M336.37,249.244L340.404,285.493L312.07,260.766L336.37,249.244Z" style="fill:rgb(171,239,239);fill-rule:nonzero;"/>
        <path d="M308.003,216.085C314.709,223.375 314.234,234.761 306.944,241.466C299.655,248.172 288.269,247.697 281.563,240.407C274.858,233.118 275.333,221.732 282.622,215.026C289.912,208.32 301.298,208.795 308.003,216.085ZM323.501,214.522L313.1,203.216L307.851,207.167C306.998,206.638 306.121,206.163 305.222,205.747L304.732,197.144L289.383,196.504L289.194,197.841L288.521,197.813L287.575,204.513C286.758,204.76 285.952,205.052 285.158,205.385L279.756,200.565L268.45,210.966L272.803,216.75C272.43,217.466 272.094,218.196 271.794,218.939L263.754,219.396L263.114,234.746L271.191,235.886C271.254,236.081 271.316,236.275 271.384,236.469L265.959,242.548L276.36,253.855L282.081,249.549C282.391,249.734 282.705,249.911 283.021,250.081L282.615,257.893L297.804,260.196L299.75,252.542C300.907,252.308 302.051,251.992 303.171,251.59L308.629,256.46L319.936,246.06L316.088,240.947C316.435,240.364 316.754,239.77 317.05,239.165L325.106,238.707L325.746,223.357L318.879,222.388C318.714,221.705 318.517,221.028 318.293,220.358L323.501,214.522Z" style="fill:rgb(210,249,254);fill-rule:nonzero;"/>
    </g>
</svg>
